<svg xmlns="http://www.w3.org/2000/svg" width="72" height="72" viewBox="0 0 72 72">
  <defs>
    <linearGradient id="icon-sitting-on-chair-a" x1="50%" x2="50%" y1="0%" y2="100%">
      <stop offset="0%" stop-color="#FFDC84"/>
      <stop offset="100%" stop-color="#FFB74D"/>
    </linearGradient>
    <linearGradient id="icon-sitting-on-chair-b" x1="50%" x2="50%" y1="17.954%" y2="100%">
      <stop offset="0%" stop-color="#99B4BF"/>
      <stop offset="100%" stop-color="#607D8B"/>
    </linearGradient>
    <linearGradient id="icon-sitting-on-chair-c" x1="50%" x2="50%" y1="0%" y2="100%">
      <stop offset="0%" stop-color="#687D87"/>
      <stop offset="100%" stop-color="#37474F"/>
    </linearGradient>
    <linearGradient id="icon-sitting-on-chair-d" x1="50%" x2="50%" y1="0%" y2="100%">
      <stop offset="0%" stop-color="#99B4BF"/>
      <stop offset="100%" stop-color="#607D8B"/>
    </linearGradient>
  </defs>
  <g fill="none" transform="translate(16.5 7.5)">
    <polygon fill="#795548" points="20.162 42 23.907 57 27 57 23.255 42"/>
    <polygon fill="#795548" points="8.155 42 4.412 57 7.505 57 11.25 42"/>
    <circle cx="13.5" cy="6" r="6" fill="url(#icon-sitting-on-chair-a)"/>
    <path fill="#607D8B" d="M37.305,56.7 C36.87,56.91 36.435,57 36,57 C34.65,57 33.435,56.085 33.09,54.735 L29.16,39 L14.295,39 C12.075,39 10.17,37.365 9.855,35.16 C9.735,34.35 7.56,19.68 7.56,19.68 C7.545,19.455 7.5,19.245 7.5,19.035 C7.5,18.75 7.53,18.45 7.575,18.18 C8.04,15.12 11.01,12.9 14.34,13.65 C16.335,14.1 17.955,15.735 18.42,17.73 C18.435,17.775 20.22,30.33 20.385,31.5 C20.385,31.5 23.85,31.965 26.985,32.385 C29.58,32.715 31.965,33.03 31.98,33.045 C33.15,33.225 34.11,34.095 34.41,35.265 L38.865,53.07 C39.21,54.495 38.625,56.055 37.305,56.7 Z"/>
    <path fill="url(#icon-sitting-on-chair-b)" d="M37.305,56.7 C36.87,56.91 36.435,57 36,57 C34.65,57 33.435,56.085 33.09,54.735 L29.16,39 L14.295,39 C12.075,39 10.17,37.365 9.855,35.16 C9.735,34.35 7.56,19.68 7.56,19.68 C7.545,19.455 7.5,19.245 7.5,19.035 C7.5,18.75 7.53,18.45 7.575,18.18 C8.04,15.12 11.01,12.9 14.34,13.65 C16.335,14.1 17.955,15.735 18.42,17.73 C18.435,17.775 20.22,30.33 20.385,31.5 C20.385,31.5 23.85,31.965 26.985,32.385 C29.58,32.715 31.965,33.03 31.98,33.045 C33.15,33.225 34.11,34.095 34.41,35.265 L38.865,53.07 C39.21,54.495 38.625,56.055 37.305,56.7 Z"/>
    <path fill="url(#icon-sitting-on-chair-c)" d="M20.385,31.5 C20.22,30.33 20.01,28.95 19.815,27.525 L14.61,26.22 L12.1305,19.5 L9.0225,29.568 C9.0225,29.568 8.625,26.925 9.465,32.535 C9.735,32.7 10.02,32.805 10.335,32.88 L22.35,35.895 C22.65,35.97 22.95,36 23.25,36 C24.975,36 26.475,34.83 26.88,33.165 C26.94,32.895 26.985,32.64 26.985,32.385 C23.85,31.965 20.385,31.5 20.385,31.5 Z"/>
    <path fill="url(#icon-sitting-on-chair-d)" d="M23.796,30.0675 L13.263,27.4335 L12.1305,19.5 L7.56,19.68 L9.0225,29.568 C9.153,30.474 9.8175,31.212 10.704,31.4325 L22.704,34.4325 C22.8885,34.4775 23.0715,34.5 23.2515,34.5 C24.2595,34.5 25.1775,33.8175 25.4325,32.796 C25.734,31.5915 25.002,30.369 23.796,30.0675 Z"/>
    <path fill="#FF9800" d="M21,39 L14.295,39 C12.0765,39 10.1685,37.35 9.8535,35.148 L7.635,20.124 C7.2,17.1795 4.674,15 1.6995,15 L0.813,15 L3.9165,36.009 C4.6485,41.1345 9.1095,45 14.295,45 L27,45 C27,41.6865 24.3135,39 21,39 Z"/>
  </g>
</svg>
