<svg xmlns="http://www.w3.org/2000/svg" width="72" height="72" viewBox="0 0 72 72">
  <defs>
    <linearGradient id="icon-manual-handling-a" x1="50%" x2="50%" y1="0%" y2="100%">
      <stop offset="0%" stop-color="#FFDC84"/>
      <stop offset="100%" stop-color="#FFB74D"/>
    </linearGradient>
    <linearGradient id="icon-manual-handling-b" x1="50%" x2="50%" y1="0%" y2="100%">
      <stop offset="0%" stop-color="#99B4BF"/>
      <stop offset="100%" stop-color="#607D8B"/>
    </linearGradient>
  </defs>
  <g fill="none" transform="translate(10.5 6)">
    <path fill="url(#icon-manual-handling-a)" d="M33,5.9955 C33,9.3105 30.3105,12 27.0045,12 C23.6895,12 21,9.3105 21,5.9955 C21,2.6895 23.6895,0 27.0045,0 C30.3105,0 33,2.6895 33,5.9955 Z"/>
    <rect width="22.5" height="21" x="28.5" y="22.5" fill="#FF9800"/>
    <polygon fill="#FFB74D" points="37.5 22.5 42 22.5 42 31.5 37.5 31.5"/>
    <path fill="#455A64" d="M18.75,60.0015 C17.1795,60.0015 15.717,59.007 15.192,57.4365 L10.692,43.9365 C10.0365,41.97 11.0985,39.846 13.0635,39.192 C15.033,38.5395 17.1525,39.6 17.808,41.5635 L22.308,55.0635 C22.9635,57.03 21.9015,59.154 19.9365,59.808 C19.542,59.9385 19.143,60.0015 18.75,60.0015 Z"/>
    <path fill="url(#icon-manual-handling-b)" d="M38.529,27.4485 L29.418,22.542 C29.418,22.542 22.602,14.6415 22.2105,14.202 C20.9925,12.8415 19.2195,12 17.25,12 C15.2055,12 13.3965,12.9285 12.1575,14.364 L12.1305,14.349 L1.5,28.053 C1.365,28.2225 1.221,28.383 1.1025,28.5645 L1.0395,28.6455 L1.053,28.656 C0.396,29.7 0,30.9255 0,32.25 C0,33.9645 0.579,35.592 1.6875,36.726 C1.758,36.798 10.5,44.5545 10.5,44.5545 L2.427,53.7795 C1.0635,55.338 1.221,57.708 2.7795,59.0715 C3.492,59.6955 4.3725,60 5.2485,60 C6.2925,60 7.332,59.5665 8.073,58.719 L18.573,46.719 C19.755,45.3675 19.8135,43.365 18.711,41.946 L12,32.994 L19.5,24 L24.5835,28.458 L34.9725,34.0515 C35.5365,34.356 36.147,34.5 36.747,34.5 C38.082,34.5 39.375,33.7845 40.0515,32.529 C41.0325,30.705 40.3515,28.4295 38.529,27.4485 Z"/>
  </g>
</svg>
