<?xml version="1.0" encoding="UTF-8"?>
<svg width="48px" height="48px" viewBox="0 0 48 48" version="1.1" xmlns="http://www.w3.org/2000/svg" xmlns:xlink="http://www.w3.org/1999/xlink">
    <!-- Generator: Sketch 64 (93537) - https://sketch.com -->
    <title>Assets/icons/colored/icon-cycling</title>
    <desc>Created with Sketch.</desc>
    <defs>
        <linearGradient x1="50%" y1="0%" x2="50%" y2="100%" id="linearGradient-1">
            <stop stop-color="#FFDE90" offset="0%"></stop>
            <stop stop-color="#FFBA57" offset="100%"></stop>
        </linearGradient>
        <linearGradient x1="50%" y1="0%" x2="50%" y2="100%" id="linearGradient-2">
            <stop stop-color="#FFDE90" offset="0%"></stop>
            <stop stop-color="#FFBA57" offset="100%"></stop>
        </linearGradient>
        <linearGradient x1="50%" y1="0%" x2="50%" y2="100%" id="linearGradient-3">
            <stop stop-color="#D8E0E4" offset="0%"></stop>
            <stop stop-color="#B0BEC5" offset="100%"></stop>
        </linearGradient>
        <linearGradient x1="50%" y1="0%" x2="50%" y2="100%" id="linearGradient-4">
            <stop stop-color="#C7ADE8" offset="0%"></stop>
            <stop stop-color="#9575CD" offset="100%"></stop>
        </linearGradient>
    </defs>
    <g id="Assets/icons/colored/icon-cycling" stroke="none" stroke-width="1" fill="none" fill-rule="evenodd">
        <g id="icons8-cycling" transform="translate(4.000000, 6.000000)" fill-rule="nonzero">
            <path d="M9,28 C9,28.6 8.6,29 8,29 C7.4,29 7,28.6 7,28 C7,27.4 7.4,27 8,27 C8.6,27 9,27.4 9,28 Z" id="Path" fill="#607D8B"></path>
            <path d="M33,28 C33,28.6 32.6,29 32,29 C31.4,29 31,28.6 31,28 C31,27.4 31.4,27 32,27 C32.6,27 33,27.4 33,28 Z" id="Path" fill="#607D8B"></path>
            <path d="M35.5,12 L29.3,12 L25.6,6.8 C25.6,6.7 25.5,6.6 25.5,6.6 C24.4,5 22.3,4.6 20.6,5.6 L12.6,11.6 C11,12.7 10.6,14.8 11.6,16.5 C11.8,16.8 12.1,17.1 12.3,17.3 C12.3,17.3 12.4,17.4 12.4,17.4 L12.7,17.6 C12.8,17.6 12.8,17.7 12.9,17.7 L18.8,21 L18,28.8 C17.9,29.9 18.7,30.9 19.8,31 C19.9,31 20,31 20,31 C21,31 21.9,30.2 22,29.2 L23,20.2 C23.1,19.5 22.8,18.8 22.2,18.4 L18.7,15.7 L24.3,11.5 L27.2,14.4 C27.5,14.8 27.9,15 28.4,15 L35.4,15 C36.2,15 36.9,14.3 36.9,13.5 C36.9,12.7 36.3,12 35.5,12 Z" id="Path" fill="url(#linearGradient-1)"></path>
            <path d="M29.5,0 C31.4,0 33,1.6 33,3.5 C33,5.4 31.4,7 29.5,7 C27.6,7 26,5.4 26,3.5 C26,1.6 27.6,0 29.5,0" id="Path" fill="url(#linearGradient-2)"></path>
            <path d="M8,36 C3.6,36 0,32.4 0,28 C0,23.6 3.6,20 8,20 C12.4,20 16,23.6 16,28 C16,32.4 12.4,36 8,36 Z M8,22 C4.7,22 2,24.7 2,28 C2,31.3 4.7,34 8,34 C11.3,34 14,31.3 14,28 C14,24.7 11.3,22 8,22 Z" id="Shape" fill="url(#linearGradient-3)"></path>
            <path d="M32,36 C27.6,36 24,32.4 24,28 C24,23.6 27.6,20 32,20 C36.4,20 40,23.6 40,28 C40,32.4 36.4,36 32,36 Z M32,22 C28.7,22 26,24.7 26,28 C26,31.3 28.7,34 32,34 C35.3,34 38,31.3 38,28 C38,24.7 35.3,22 32,22 Z" id="Shape" fill="url(#linearGradient-3)"></path>
            <path d="M18.7,15.7 L12.5,11.6 C10.9,12.7 10.5,14.8 11.5,16.5 C11.7,16.8 12,17.1 12.2,17.3 C12.2,17.3 12.3,17.4 12.3,17.4 L12.6,17.6 C12.7,17.6 12.7,17.7 12.8,17.7 L18.3,20.8 L22.1,18.5 C22.1,18.5 22.1,18.5 22,18.4 L18.7,15.7 Z" id="Path" fill="#2D4C5C"></path>
            <path d="M25.5,6.8 C25.5,6.7 25.4,6.6 25.4,6.6 C24.3,5 22.2,4.6 20.5,5.6 L12.5,11.6 L18.7,15.7 L24.3,11.5 L26.9,14.1 L26.9,14 L29.1,11.8 L25.5,6.8 Z" id="Path" fill="url(#linearGradient-4)"></path>
        </g>
    </g>
</svg>