<svg xmlns="http://www.w3.org/2000/svg" width="48" height="48" viewBox="0 0 48 48">
  <defs>
    <linearGradient id="icon-scale-a" x1="50%" x2="50%" y1="0%" y2="100%">
      <stop offset="0%" stop-color="#E5AB0C"/>
      <stop offset="100%" stop-color="#C67305"/>
    </linearGradient>
    <linearGradient id="icon-scale-b" x1="50%" x2="50%" y1="0%" y2="100%">
      <stop offset="0%" stop-color="#FFE211"/>
      <stop offset="100%" stop-color="#FFC107"/>
    </linearGradient>
  </defs>
  <g fill="none" transform="translate(6 5)">
    <path fill="url(#icon-scale-a)" d="M22,36 C23.1,36 24,36.9 24,38 L24,38 L24,39 L12,39 L12,38 C12,36.9 12.9,36 14,36 L14,36 Z M25.6,27.7 C26.1,27.9 26.4,28.4 26.2,29 L26,29.5 C25.8,29.9 25.4,30.2 25,30.2 C24.9,30.2 24.8,30.2 24.7,30.1 C24.2,29.9 23.9,29.4 24.1,28.8 L24.3,28.3 C24.5,27.8 25,27.5 25.6,27.7 Z M35.8,28.3 L36,28.8 C36.2,29.3 35.9,29.9 35.4,30.1 C35.2,30.1 35.1,30.2 35,30.2 C34.6,30.2 34.2,29.9 34,29.5 L33.9,29 C33.7,28.5 34,27.9 34.5,27.7 C35,27.5 35.6,27.8 35.8,28.3 Z M1.6,27.7 C2,27.9 2.3,28.5 2.1,29 L1.9,29.5 C1.8,29.9 1.4,30.2 1,30.2 C0.9,30.2 0.8,30.2 0.7,30.1 C0.2,29.9 -0.1,29.4 0.1,28.8 L0.3,28.3 C0.5,27.8 1,27.5 1.6,27.7 Z M11.8,28.3 L12,28.8 C12.2,29.3 11.9,29.9 11.4,30.1 C11.2,30.1 11.1,30.2 11,30.2 C10.6,30.2 10.2,29.9 10,29.5 L9.9,29 C9.7,28.5 10,27.9 10.5,27.7 C11,27.5 11.6,27.8 11.8,28.3 Z M26.6,24.7 C27.1,24.9 27.4,25.4 27.2,26 L26.9,27 C26.7,27.4 26.3,27.7 25.9,27.7 C25.8,27.7 25.7,27.7 25.6,27.6 C25.1,27.4 24.8,26.9 25,26.3 L25.3,25.3 C25.5,24.8 26,24.5 26.6,24.7 Z M34.8,25.3 L35.1,26.3 C35.3,26.8 35,27.4 34.5,27.6 C34.4,27.7 34.3,27.7 34.2,27.7 C33.8,27.7 33.4,27.4 33.2,27 L32.9,26 C32.7,25.5 33,24.9 33.5,24.7 C34,24.5 34.6,24.8 34.8,25.3 Z M2.6,24.7 C3,24.9 3.3,25.5 3.1,26 L2.8,27 C2.7,27.4 2.3,27.7 1.9,27.7 C1.8,27.7 1.7,27.7 1.6,27.6 C1.1,27.4 0.8,26.9 1,26.3 L1.3,25.3 C1.5,24.8 2,24.5 2.6,24.7 Z M10.8,25.3 L11.1,26.3 C11.3,26.8 11,27.4 10.5,27.6 C10.4,27.7 10.3,27.7 10.2,27.7 C9.8,27.7 9.4,27.4 9.2,27 L8.9,26 C8.7,25.5 9,24.9 9.5,24.7 C10,24.5 10.6,24.8 10.8,25.3 Z M27.6,21.7 C28.1,21.9 28.4,22.4 28.2,23 L27.9,24 C27.7,24.4 27.3,24.7 26.9,24.7 C26.8,24.7 26.7,24.7 26.6,24.6 C26.1,24.4 25.8,23.9 26,23.3 L26.3,22.3 C26.5,21.8 27,21.5 27.6,21.7 Z M3.6,21.7 C4.1,21.9 4.4,22.4 4.2,23 L3.9,24 C3.7,24.4 3.3,24.7 2.9,24.7 C2.8,24.7 2.7,24.7 2.6,24.6 C2.1,24.4 1.8,23.9 2,23.3 L2.3,22.3 C2.5,21.8 3,21.5 3.6,21.7 Z M33.8,22.2 L34.1,23.2 C34.3,23.7 34,24.3 33.5,24.5 C33.4,24.6 33.3,24.6 33.2,24.6 C32.8,24.6 32.4,24.3 32.2,23.9 L31.9,22.9 C31.7,22.4 32,21.8 32.5,21.6 C33,21.4 33.6,21.7 33.8,22.2 Z M9.8,22.2 L10.1,23.2 C10.3,23.7 10,24.3 9.5,24.5 C9.4,24.6 9.3,24.6 9.2,24.6 C8.8,24.6 8.4,24.3 8.2,23.9 L7.9,22.9 C7.7,22.4 8,21.8 8.5,21.6 C9,21.4 9.6,21.7 9.8,22.2 Z M28.6,18.6 C29.1,18.8 29.4,19.3 29.2,19.9 L28.9,20.9 C28.7,21.4 28.3,21.6 27.9,21.6 C27.8,21.6 27.7,21.6 27.6,21.5 C27.1,21.3 26.8,20.8 27,20.2 L27.3,19.2 C27.5,18.7 28,18.4 28.6,18.6 Z M32.9,19.2 L33.2,20.2 C33.4,20.7 33.1,21.3 32.6,21.5 C32.5,21.6 32.4,21.6 32.3,21.6 C31.9,21.6 31.5,21.3 31.3,20.9 L31,19.9 C30.8,19.4 31.1,18.8 31.6,18.6 C32.1,18.4 32.7,18.7 32.9,19.2 Z M4.6,18.6 C5.1,18.8 5.4,19.3 5.2,19.9 L4.9,20.9 C4.7,21.4 4.3,21.6 3.9,21.6 C3.8,21.6 3.7,21.6 3.6,21.5 C3.1,21.3 2.8,20.8 3,20.2 L3.3,19.2 C3.5,18.7 4,18.4 4.6,18.6 Z M8.9,19.2 L9.2,20.2 C9.4,20.7 9.1,21.3 8.6,21.5 C8.5,21.6 8.4,21.6 8.3,21.6 C7.9,21.6 7.5,21.3 7.3,20.9 L7,19.9 C6.8,19.4 7.1,18.8 7.6,18.6 C8.1,18.4 8.7,18.7 8.9,19.2 Z M31,6.2 C32.2,6.2 34,7 34,9.2 C34,11.8418877 32.0082081,12.9899315 30.4439763,13.1733647 C30.7089132,13.2846677 30.9293429,13.5173717 31,13.8 L31.2,14.3 C31.3857143,14.7642857 31.1403061,15.3147959 30.7039723,15.5512026 L30.6,15.6 L30.6,15.6 L29.7,15.6 L29.7,15.6 C29.8863711,15.6745484 30.0449549,15.7907779 30.160215,15.9383309 C30.249602,15.8204911 30.3640859,15.7202838 30.4960277,15.6487974 L30.6,15.6 L30.6,15.6 C31.1,15.4 31.7,15.7 31.9,16.2 L32.2,17.2 C32.4,17.7 32.1,18.3 31.6,18.5 C31.5,18.6 31.4,18.6 31.3,18.6 C30.9,18.6 30.5,18.3 30.3,17.9 L30.1493538,17.399 L30,17.9 C29.8,18.3 29.4,18.6 29,18.6 C28.9,18.6 28.8,18.6 28.7,18.5 C28.2,18.3 27.9,17.8 28.1,17.2 L28.4,16.2 C28.5766551,15.7583624 28.9873627,15.4727598 29.4943009,15.5499251 C29.0593049,15.3273143 28.814433,14.856701 29,14.3 L29.2,13.8 C29.2670567,13.5317732 29.4690115,13.3085124 29.7154061,13.190523 L30,13.2 C27.9,13.2 26,12.2 24.2,11.2 C22.3031987,10.2016835 20.4063973,9.203367 18.012117,9.2000085 L18,9.2 L18,9.2 C15.6,9.2 13.7,10.2 11.8,11.2 C10.1332256,12.1259858 8.38070623,13.0519716 6.46304328,13.1839711 C6.71949598,13.2959616 6.93105311,13.5242124 7,13.8 L7.2,14.3 C7.39903846,14.7975962 7.10287306,15.3942331 6.60719764,15.5970877 C7.1,15.4 7.7,15.7 7.9,16.2 L8.2,17.2 C8.4,17.7 8.1,18.3 7.6,18.5 C7.5,18.6 7.4,18.6 7.3,18.6 C6.9,18.6 6.5,18.3 6.3,17.9 L6.14935378,17.399 L6,17.9 C5.8,18.3 5.4,18.6 5,18.6 C4.9,18.6 4.8,18.6 4.7,18.5 C4.2,18.3 3.9,17.8 4.1,17.2 L4.4,16.2 C4.57665505,15.7583624 4.98736266,15.4727598 5.49430094,15.5499251 C5.05930492,15.3273143 4.81443299,14.856701 5,14.3 L5.2,13.8 C5.26759676,13.529613 5.47227318,13.3049191 5.72136785,13.1876928 C4.13681208,13.07014 2,11.9363745 2,9.2 C2,7 3.8,6.2 5,6.2 C6.2,6.2 8,7 8,9.2 C8,9.8 7.6,10.2 7,10.2 C6.4,10.2 6,9.8 6,9.2 C6,8.4 5.4,8.2 5,8.2 C4.6,8.2 4,8.4 4,9.2 C4,11.1 5.7,11.2 6,11.2 C7.6,11.2 9.1,10.4 10.8,9.5 C12.8,8.4 15.1,7.2 18,7.2 C20.9,7.2 23.2,8.4 25.2,9.5 C26.9,10.4 28.4,11.2 30,11.2 C30.5,11.2 32,11 32,9.2 C32,8.4 31.5,8.2 31,8.2 C30.6,8.2 30,8.4 30,9.2 C30,9.8 29.6,10.2 29,10.2 C28.4,10.2 28,9.8 28,9.2 C28,7 29.8,6.2 31,6.2 Z M6.59794069,15.6008264 L5.70135378,15.6 L5.8039723,15.6473761 C5.94555896,15.7202448 6.06704214,15.8190535 6.16021498,15.9383309 C6.27215241,15.7910859 6.4227121,15.6713803 6.59794069,15.6008264 Z M18,0 C18,0 20,2.1 20,3.2 C20,4.3 19.1,5.2 18,5.2 C16.9,5.2 16,4.3 16,3.2 C16,2.1 18,0 18,0 Z"/>
    <path fill="url(#icon-scale-b)" d="M19.0003239,31.0329338 C19.0068027,31.4648526 19.1428571,36 22,36 L22,36 L14,36 C17,36 17,31 17,31 L17,31 L16.9998763,11.0395911 C15.8157465,10.6423019 15,9.5466504 15,8.2 C15,6.5 16.3,5.2 18,5.2 C19.7,5.2 21,6.5 21,8.2 C21,9.54627329 20.1847103,10.6416882 19.0011184,11.0392572 Z M36,30 C36,30 35,34 30,34 C25,34 24,30 24,30 L24,30 Z M12,30 C12,30 11,34 6,34 C1,34 0,30 0,30 L0,30 Z"/>
  </g>
</svg>
