<svg xmlns="http://www.w3.org/2000/svg" width="72" height="72" viewBox="0 0 72 72">
  <defs>
    <linearGradient id="icon-walking-a" x1="50%" x2="50%" y1="0%" y2="100%">
      <stop offset="0%" stop-color="#7B939D"/>
      <stop offset="100%" stop-color="#455A64"/>
    </linearGradient>
    <linearGradient id="icon-walking-b" x1="50%" x2="50%" y1="0%" y2="100%">
      <stop offset="0%" stop-color="#7B939D"/>
      <stop offset="100%" stop-color="#455A64"/>
    </linearGradient>
    <linearGradient id="icon-walking-c" x1="50%" x2="50%" y1="0%" y2="100%">
      <stop offset="0%" stop-color="#99B4BF"/>
      <stop offset="100%" stop-color="#607D8B"/>
    </linearGradient>
  </defs>
  <g fill="none" transform="translate(16.5 6)">
    <path fill="url(#icon-walking-a)" d="M35.2725,36.0375 C35.037,36.0375 34.797,36 34.56,35.9235 L26.2875,32.136 C25.614,31.911 25.086,31.383 24.864,30.7095 L19.5,18 C19.1085,16.8225 21.0825,16.0665 22.263,15.6765 C23.442,15.2865 24.7155,15.9255 25.1055,17.106 L28.782,28.224 L35.985,31.6515 C37.164,32.0445 37.8,33.321 37.407,34.4985 C37.092,35.4435 36.2145,36.0375 35.2725,36.0375 Z"/>
    <path fill="#FFB74D" d="M23.25,0 C26.1495,0 28.5,2.3505 28.5,5.25 C28.5,8.148 26.1495,10.5 23.25,10.5 C20.3505,10.5 18,8.148 18,5.25 C18,2.3505 20.3505,0 23.25,0"/>
    <path fill="url(#icon-walking-b)" d="M2.9985,60 C2.322,60 1.641,59.772 1.08,59.3025 C-0.1935,58.242 -0.3645,56.352 0.696,55.077 L7.803,46.5525 L12.126,32.139 C12.603,30.5505 14.2785,29.649 15.861,30.126 C17.4495,30.603 19.9755,32.9115 19.5,34.5 L13.374,48.861 C13.257,49.2465 13.0635,49.611 12.804,49.9215 L5.304,58.9215 C4.7115,59.631 3.858,60 2.9985,60 Z"/>
    <path fill="url(#icon-walking-c)" d="M20.4135,13.5 L20.4584204,13.5037529 C20.7001706,13.5142451 20.9441378,13.5416838 21.189,13.587 C24.042,14.103 25.9335,16.839 25.4145,19.689 L21.6645,35.436 C21.6147829,35.710011 21.5446793,35.97514 21.456039,36.2301111 L27.348,45.966 C27.3825,46.0125 27.414,46.0545 27.4455,46.101 L27.4455,46.101 L32.496,55.3365 C33.414,56.7135 33.042,58.5765 31.6635,59.496 C31.1535,59.8365 30.5745,60 30.003,60 C29.0325,60 28.083,59.532 27.504,58.6635 L27.504,58.6635 L22.5,49.5 L13.3846929,38.7262073 C12.1367513,37.8049659 11.3374174,36.3569399 11.256566,34.7724142 C11.2558414,34.7533996 11.2549174,34.7344309 11.2540981,34.7154424 C11.2521494,34.6699772 11.2509182,34.6243382 11.250287,34.5785999 C11.2493723,34.5394319 11.2491734,34.4998194 11.2494337,34.4601341 C11.2502138,34.435873 11.2505862,34.4122502 11.2511195,34.3886046 C11.2559478,34.1157904 11.2833407,33.8391051 11.334,33.561 L11.334,33.561 L11.5815,32.52 L11.5828596,32.519 L14.1488596,21.742 L8.229,25.1895 L5.9955,35.5905 C5.826,36.7035 4.866,37.5 3.774,37.5 C3.6615,37.5 3.549,37.491 3.4335,37.476 C2.2065,37.2885 1.3605,36.1395 1.5465,34.9095 L3.9165,23.613 C4.005,23.0385 4.3125,22.521 4.773,22.1655 L14.991,14.337 C16.5,13.5 18,13.5 20.4135,13.5 Z"/>
  </g>
</svg>
