<?xml version="1.0" encoding="UTF-8"?>
<svg width="48px" height="48px" viewBox="0 0 48 48" version="1.1" xmlns="http://www.w3.org/2000/svg" xmlns:xlink="http://www.w3.org/1999/xlink">
    <!-- Generator: Sketch 64 (93537) - https://sketch.com -->
    <title>Assets/icons/colored/icon-neutral-dynamic</title>
    <desc>Created with Sketch.</desc>
    <defs>
        <linearGradient x1="0%" y1="34.5679012%" x2="100%" y2="65.4320988%" id="linearGradient-1">
            <stop stop-color="#03A9F4" offset="0%"></stop>
            <stop stop-color="#0288D1" offset="100%"></stop>
        </linearGradient>
        <linearGradient x1="50%" y1="-35.3668283%" x2="67.4772486%" y2="139.260638%" id="linearGradient-2">
            <stop stop-color="#FAD961" offset="0%"></stop>
            <stop stop-color="#F7681C" offset="100%"></stop>
        </linearGradient>
    </defs>
    <g id="Assets/icons/colored/icon-neutral-dynamic" stroke="none" stroke-width="1" fill="none" fill-rule="evenodd">
        <g id="icons8-neutral-dynamic" transform="translate(6.000000, 0.333333)" fill-rule="nonzero">
            <path d="M13,21.6666667 L23,21.6666667 L23,41.6666667 L13,41.6666667 L13,21.6666667 Z M0,21.6666667 L10,21.6666667 L10,41.6666667 L0,41.6666667 L0,21.6666667 Z M26,21.6666667 L36,21.6666667 L36,41.6666667 L26,41.6666667 L26,21.6666667 Z" id="Shape" fill="url(#linearGradient-1)"></path>
            <g id="Group" transform="translate(19.430964, 11.333333) rotate(-45.000000) translate(-19.430964, -11.333333) translate(11.930964, 3.833333)" fill="url(#linearGradient-2)">
                <path d="M3.39364311,0.565391233 L11.4132654,8.58539123 L15,5 L15,15 L5,15 L8.58526535,11.4133912 L0.565265351,3.39386772 L3.39364311,0.565391233 Z" id="Combined-Shape"></path>
            </g>
        </g>
    </g>
</svg>