<?xml version="1.0" encoding="UTF-8"?>
<svg width="48px" height="48px" viewBox="0 0 48 48" version="1.1" xmlns="http://www.w3.org/2000/svg" xmlns:xlink="http://www.w3.org/1999/xlink">
    <!-- Generator: Sketch 64 (93537) - https://sketch.com -->
    <title>Assets/icons/colored/icon-positive-dynamic</title>
    <desc>Created with Sketch.</desc>
    <defs>
        <linearGradient x1="0%" y1="5.40123457%" x2="100%" y2="94.5987654%" id="linearGradient-1">
            <stop stop-color="#03A9F4" offset="0%"></stop>
            <stop stop-color="#0288D1" offset="100%"></stop>
        </linearGradient>
        <linearGradient x1="0.835440751%" y1="0.835440751%" x2="100%" y2="100%" id="linearGradient-2">
            <stop stop-color="#FAD961" offset="0%"></stop>
            <stop stop-color="#F7681C" offset="100%"></stop>
        </linearGradient>
    </defs>
    <g id="Assets/icons/colored/icon-positive-dynamic" stroke="none" stroke-width="1" fill="none" fill-rule="evenodd">
        <g id="icons8-positive-dynamic">
            <rect id="Rectangle" x="0" y="0" width="48" height="48"></rect>
            <path d="M19,21 L29,21 L29,41 L19,41 L19,21 Z M32,7 L42,7 L42,41 L32,41 L32,7 Z M6,29 L16,29 L16,41 L6,41 L6,29 Z" id="Shape" fill="url(#linearGradient-1)" fill-rule="nonzero"></path>
            <path d="M21,7 L21,17 L17.4132654,13.414 L9.39364311,21.4346088 L6.56526535,18.6061323 L14.5852654,10.586 L11,7 L21,7 Z" id="Combined-Shape" fill="url(#linearGradient-2)" fill-rule="nonzero"></path>
        </g>
    </g>
</svg>