<svg id="Ebene_1" data-name="Ebene 1" xmlns="http://www.w3.org/2000/svg" viewBox="0 0 128 40"><defs><style>.cls-1{fill:#37474f;}.cls-2{fill:#03a9f4;stroke:#03a9f4;}.cls-2,.cls-3,.cls-4{stroke-miterlimit:10;stroke-width:0.1px;}.cls-3{fill:#ffc107;stroke:#ffc107;}.cls-4{fill:#e91e63;stroke:#e91e63;}.cls-5{fill:#689f38;}.cls-5,.cls-6{fill-rule:evenodd;}.cls-6{fill:#8bc34a;}</style></defs><title>Zeichenfläche 1</title><path class="cls-1" d="M50.26,8a14.77,14.77,0,0,0-2.33.17l-4.72,10.7L38.5,8.17A12.91,12.91,0,0,0,36.35,8a20,20,0,0,0-2.56.17l7,15.32v8.26h4.72V23.48l7.12-15.3A18,18,0,0,0,50.26,8Z"/><path class="cls-1" d="M126.33,15.32a11,11,0,0,0-1.8-3.79A8.75,8.75,0,0,0,121.45,9,10.66,10.66,0,0,0,117,8.15a10.37,10.37,0,0,0-4.49.86,7.72,7.72,0,0,0-3.08,2.5,10.88,10.88,0,0,0-1.81,3.78,17.54,17.54,0,0,0-.59,4.78,17.73,17.73,0,0,0,.57,4.71,10.71,10.71,0,0,0,1.8,3.73A9.39,9.39,0,0,0,112.46,31a10.62,10.62,0,0,0,4.48.87,10.32,10.32,0,0,0,4.48-.86,7.82,7.82,0,0,0,3.09-2.5,11.27,11.27,0,0,0,1.81-3.73,17.27,17.27,0,0,0,.58-4.71A17.73,17.73,0,0,0,126.33,15.32Zm-9.45,13c-3.31,0-5.35-3-5.34-8.27s2-8.2,5.42-8.2a4.33,4.33,0,0,1,3.72,2.22A11.28,11.28,0,0,1,122.25,20C122.24,25.38,120.2,28.35,116.88,28.34Z"/><path class="cls-1" d="M97.41,8.24l0,23.57a15.92,15.92,0,0,0,2.39.18,17.14,17.14,0,0,0,2.32-.17l0-23.58a18,18,0,0,0-2.38-.17A15.69,15.69,0,0,0,97.41,8.24Z"/><path class="cls-1" d="M91.3,8.29l-16.07,0a9.1,9.1,0,0,0-.17,1.8,7.64,7.64,0,0,0,.17,1.75h9.49L75,31.49l.23.35,16.07,0a8.84,8.84,0,0,0,0-3.55H82L91.53,8.7Z"/><path class="cls-1" d="M63.24,8.08A7.52,7.52,0,0,0,62.08,8a7.26,7.26,0,0,0-1.17.06,9.55,9.55,0,0,0-1.16.17L52.62,31.82A16.6,16.6,0,0,0,55,32a16.36,16.36,0,0,0,2.38-.17l1.17-4.71h7.11l1.15,4.71a15.54,15.54,0,0,0,2.39.18,17.17,17.17,0,0,0,2.33-.17l-7-23.58A11.66,11.66,0,0,0,63.24,8.08ZM59.32,23.56,62.07,13l2.67,10.6Z"/><path class="cls-2" d="M12.93,9.74l-.21.14a10.34,10.34,0,0,0-4.38,8.45c0,.1,0,.19,0,.29A10.32,10.32,0,0,0,3,27.34,21.56,21.56,0,0,1,0,16.89C0,9.9,5.06,8.12,7.72,8H8a4.91,4.91,0,0,1,1.91.38C11,8.84,11.8,9.59,12.93,9.74Z"/><path class="cls-3" d="M23.64,27.41C22,30.15,20,32,18.5,32c-3.15,0-3.58-.89-5.16-.89s-2,.89-5.16.89c-1.53,0-3.5-1.86-5.13-4.6a.25.25,0,0,0,0-.07,10.32,10.32,0,0,1,5.34-8.72,10.35,10.35,0,0,0,15.29,8.79Z"/><path class="cls-4" d="M26.69,16.89a21.56,21.56,0,0,1-3,10.45.25.25,0,0,0,0,.07A10.34,10.34,0,0,1,8.35,18.62c0-.1,0-.19,0-.29a10.34,10.34,0,0,1,4.38-8.45l.21-.14h0a2.34,2.34,0,0,0,.38,0l.32,0h.1a3.31,3.31,0,0,0,1.05-.33A6.94,6.94,0,0,0,15.52,9a5.81,5.81,0,0,1,3.16-1H19C21.63,8.12,26.69,9.9,26.69,16.89Z"/><path class="cls-5" d="M17.59,3.5A4.53,4.53,0,0,0,14,5.76a4.54,4.54,0,0,0-.58,4.17A4.55,4.55,0,0,0,17,7.68a4.57,4.57,0,0,0,.58-4.18"/><path class="cls-6" d="M7.65.43a6.69,6.69,0,0,0,.7,6.1,6.6,6.6,0,0,0,5.1,3.4,6.69,6.69,0,0,0-.7-6.1A6.6,6.6,0,0,0,7.65.43"/></svg>